<svg xmlns="http://www.w3.org/2000/svg" width="376" height="55" viewBox="0 0 376 55">
    <g fill="none" fill-rule="nonzero">
        <g fill="#178971">
            <path d="M128.541 9.289c-5.745 0-10.486 1.878-14.22 5.489-3.735 3.755-5.603 8.378-5.603 13.866 0 5.49 1.868 10.112 5.459 13.723 3.735 3.61 8.331 5.489 13.933 5.489 5.603 0 10.343-2.167 14.221-6.5.431-.434.431-1.012 0-1.445l-3.734-3.9c-.431-.433-1.006-.433-1.437 0-1.58 1.445-3.016 2.456-4.31 3.033-1.436.578-3.016.867-4.883.867-3.017 0-5.602-1.155-7.613-3.178-2.155-2.31-3.304-4.91-3.304-8.233 0-3.322 1.005-5.922 3.304-7.944 2.298-2.167 4.884-3.178 8.187-3.178 1.868 0 3.448.289 4.74.866 1.294.578 2.874 1.734 4.454 3.178.143.145.43.29.718.29.287 0 .575-.145.718-.29l3.735-4.189c.431-.433.431-1.01 0-1.444-3.735-4.333-8.619-6.5-14.365-6.5zM167.47 10.733c-.144-.433-.575-.577-1.006-.577h-6.177c-.43 0-.862.288-1.005.577l-15.37 35.1c-.144.29-.144.723.143 1.011.144.29.575.434.862.434h6.177c.43 0 .862-.29 1.005-.578l3.304-7.367h16.089l3.16 7.367c.144.433.575.578 1.005.578h6.177c.431 0 .718-.145.862-.434.144-.288.287-.722.144-1.01l-15.37-35.1zm.574 21.09h-9.337l4.74-10.69 4.597 10.69zM209.702 34.133c4.596-1.877 6.895-5.777 6.895-11.41 0-4.334-1.293-7.512-3.879-9.534-2.585-2.022-6.464-2.889-12.066-2.889h-12.928a.985.985 0 0 0-1.006 1.011v35.1a.985.985 0 0 0 1.006 1.011h5.89a.985.985 0 0 0 1.005-1.01v-10.69h6.177l8.044 11.267c.143.289.574.433.862.433h7.47c.43 0 .718-.289 1.005-.578.143-.288.143-.722-.144-1.155l-8.331-11.556zm-1.293-11.555c0 2.022-.431 3.466-1.437 4.189-.718.577-2.298 1.3-6.176 1.3h-6.177v-10.4h6.32c3.735 0 5.315.577 6.033 1.155 1.006.578 1.437 1.878 1.437 3.756zM248.199 10.156h-23.27a.985.985 0 0 0-1.006 1.01v35.1a.985.985 0 0 0 1.005 1.012h5.89a.985.985 0 0 0 1.005-1.011v-13.29h14.365a.985.985 0 0 0 1.005-1.01v-5.634a.985.985 0 0 0-1.005-1.01h-14.365V17.81h16.232a.985.985 0 0 0 1.006-1.011v-5.489c0-.289-.144-.578-.288-.722 0-.289-.287-.433-.574-.433zM261.989 10.156h-5.89a.985.985 0 0 0-1.005 1.01v35.1a.985.985 0 0 0 1.005 1.012h5.89a.985.985 0 0 0 1.005-1.011v-35.1c.144-.578-.43-1.011-1.005-1.011zM294.74 34.133c4.597-1.877 6.895-5.777 6.895-11.41 0-4.334-1.292-7.512-3.878-9.534-2.586-2.022-6.464-2.889-12.066-2.889h-12.929a.985.985 0 0 0-1.005 1.011v35.1a.985.985 0 0 0 1.005 1.011h5.89a.985.985 0 0 0 1.005-1.01v-10.69h6.177l8.044 11.267c.144.289.575.433.862.433h7.47c.43 0 .718-.289 1.005-.578.144-.288.144-.722-.143-1.155l-8.332-11.556zm-1.292-11.555c0 2.022-.431 3.466-1.437 4.189-.718.577-2.298 1.3-6.177 1.3h-6.177v-10.4h6.32c3.736 0 5.316.577 6.034 1.155.862.578 1.437 1.878 1.437 3.756zM332.232 28.644c-2.011-1.733-4.884-3.033-8.475-3.9-3.448-.866-5.746-1.588-6.608-2.31-.862-.578-1.149-1.3-1.149-2.456 0-1.011.43-1.734 1.15-2.311.861-.578 2.154-.867 3.59-.867 1.724 0 3.16.289 4.884 1.011 1.58.433 2.73 1.156 3.879 2.022.287.145.574.29.862.29a.79.79 0 0 0 .718-.434l3.16-4.478c.287-.433.287-1.011-.144-1.444a17.545 17.545 0 0 0-6.033-3.323c-2.298-.722-4.596-1.155-6.895-1.155-3.735 0-6.751 1.011-9.337 2.889-2.585 2.022-3.878 4.766-3.878 8.378 0 3.61 1.149 6.21 3.591 8.088 1.436 1.012 2.586 1.734 3.878 2.167 1.437.578 3.448 1.156 5.89 1.733 2.586.578 4.166 1.3 5.028 1.878.718.434 1.149 1.156 1.149 2.311 0 1.011-.431 1.878-1.293 2.456-1.006.722-2.298 1.011-3.879 1.011-3.447 0-6.895-1.444-10.198-4.333a1.094 1.094 0 0 0-.719-.29.79.79 0 0 0-.718.434l-3.735 4.478c-.43.433-.287 1.155.144 1.444 4.31 3.9 9.48 5.923 15.226 5.923 4.023 0 7.326-1.012 9.625-3.034 2.585-2.022 3.735-4.766 3.735-8.233-.431-3.467-1.437-6.067-3.448-7.945zM366.133 10.156h-27.006a.985.985 0 0 0-1.005 1.01v5.49a.985.985 0 0 0 1.005 1.01h9.48v28.6a.985.985 0 0 0 1.006 1.012h5.89a.985.985 0 0 0 1.005-1.011v-28.6h9.481a.985.985 0 0 0 1.005-1.011v-5.49c.144-.577-.287-1.01-.861-1.01z"/>
        </g>
        <path fill="#178971" d="M86.537 21.113h-6.17c-1.292 0-2.153 1.005-2.153 2.154 0 1.292 1.004 2.154 2.152 2.154h6.171c1.292 0 2.153-1.006 2.153-2.154 0-1.15-1.005-2.154-2.153-2.154zM86.537 26.713h-6.17c-1.292 0-2.153 1.005-2.153 2.154 0 1.292 1.004 2.154 2.152 2.154h6.171c1.292 0 2.153-1.006 2.153-2.154 0-1.15-1.005-2.154-2.153-2.154zM77.21 46.097h.43c1.148 0 2.152-.861 2.296-1.866.143-.575-.144-1.293-.574-1.723-.43-.431-1.005-.718-1.579-.718h-.43c-1.148 0-2.153.718-2.297 1.723-.143.574 0 1.292.431 1.723.43.574 1.005.861 1.722.861zM41.762 45.81h.43c1.148 0 2.153-.861 2.297-1.866.143-.575-.144-1.293-.574-1.723-.431-.431-1.005-.718-1.58-.718h-.43c-1.148 0-2.152.718-2.296 1.723-.143.718 0 1.292.43 1.723.431.574 1.149.861 1.723.861z"/>
        <path fill="#178971" d="M102.467 10.918h-8.18c-1.292 0-2.153 1.005-2.153 2.154s1.005 2.154 2.153 2.154h.43v3.302c-8.036-6.03-14.925-10.195-20.665-12.923l-.861-.43C63.289.434 56.687.004 53.099.291c-4.162.431-6.601 2.154-8.323 5.744l-6.028 12.349-9.759.718c-4.736.143-8.467 3.876-8.467 8.615v9.62c0 4.739 3.875 8.76 8.61 8.76h2.153A11.108 11.108 0 0 0 42.192 55c5.454 0 9.903-3.877 10.907-8.903h13.49A11.108 11.108 0 0 0 77.496 55c5.454 0 9.902-3.877 10.907-8.903h2.153c4.736 0 8.61-3.876 8.61-8.615V23.123v-.144V15.37h3.301c1.292 0 2.153-1.005 2.153-2.154 0-1.148-1.005-2.297-2.153-2.297zM70.751 43.369c.287-3.59 3.157-6.318 6.745-6.318s6.458 2.728 6.745 6.318c0 .287-.143.431-.143.718 0 .144 0 .287.143.43a6.737 6.737 0 0 1-6.745 6.175c-3.588 0-6.601-2.871-6.745-6.318v-.43-.575zm6.745-10.625a11.108 11.108 0 0 0-10.907 8.902H53.1a11.108 11.108 0 0 0-10.907-8.902 11.108 11.108 0 0 0-10.907 8.902h-2.152c-2.296 0-4.306-1.867-4.306-4.308v-2.01h4.736c1.292 0 2.153-1.005 2.153-2.154 0-1.292-1.005-2.153-2.153-2.153h-4.736v-3.303c0-2.297 1.866-4.308 4.306-4.308h.143l11.05-.861h.144l32.577-2.441h.287c.144 0 .144 0 .287-.144h.144c.143 0 .143-.143.287-.143h.143c.144 0 .144-.144.287-.144l.144-.144.143-.143s0-.144.144-.144c0-.143.143-.143.143-.287v-.144c0-.143 0-.143.144-.287v-.143-.288V11.205c5.453 2.872 12.055 7.18 19.661 13.067v13.21c0 2.297-1.866 4.308-4.305 4.308h-2.01c-1.148-5.17-5.596-9.046-11.05-9.046zM42.05 37.05a6.74 6.74 0 0 1 6.745 6.749 6.74 6.74 0 0 1-6.745 6.749 6.74 6.74 0 0 1-6.745-6.749 6.74 6.74 0 0 1 6.745-6.749zm28.559-21.107l-26.837 2.01 5.023-9.764c1.004-2.154 2.296-3.016 4.88-3.303 2.582-.287 8.036-.143 17.077 4.02v7.037h-.143z"/>
        <path fill="#385378" d="M7.176 35.185h7.032c1.148 0 2.009-.862 2.009-2.01 0-1.15-.861-2.01-2.01-2.01H7.177c-1.149 0-2.01.86-2.01 2.01 0 1.148.861 2.01 2.01 2.01zM14.495 36.764H2.153c-1.148 0-2.01.862-2.01 2.01 0 1.15.862 2.01 2.01 2.01h12.342c1.148 0 2.009-.86 2.009-2.01 0-1.148-.861-2.01-2.01-2.01zM361.505 36.046h7.032c1.148 0 2.01-.861 2.01-2.01 0-1.149-.862-2.01-2.01-2.01h-7.032c-1.148 0-2.009.861-2.009 2.01.144 1.149 1.005 2.01 2.01 2.01zM373.847 37.626h-12.342c-1.148 0-2.009.861-2.009 2.01.144 1.149 1.005 2.01 2.01 2.01h12.341c1.148 0 2.01-.861 2.01-2.01 0-1.149-1.005-2.01-2.01-2.01z"/>
    </g>
</svg>
